Coordinates
version=1
nRows=10
nColumns=63
inDegrees=yes

Units are S.I. units (second, meters, Newtons, ...)
If the header above contains a line with 'inDegrees', this indicates whether rotational values are in degrees (yes) or radians (no).

endheader
time	pelvis_tilt	pelvis_list	pelvis_rotation	pelvis_tx	pelvis_ty	pelvis_tz	hip_flexion_r	hip_adduction_r	hip_rotation_r	knee_angle_r	knee_angle_r_beta	ankle_angle_r	subtalar_angle_r	mtp_angle_r	hip_flexion_l	hip_adduction_l	hip_rotation_l	knee_angle_l	knee_angle_l_beta	ankle_angle_l	subtalar_angle_l	mtp_angle_l	L5_S1_Flex_Ext	L5_S1_Lat_Bending	L5_S1_axial_rotation	L4_L5_Flex_Ext	L4_L5_Lat_Bending	L4_L5_axial_rotation	L3_L4_Flex_Ext	L3_L4_Lat_Bending	L3_L4_axial_rotation	L2_L3_Flex_Ext	L2_L3_Lat_Bending	L2_L3_axial_rotation	L1_L2_Flex_Ext	L1_L2_Lat_Bending	L1_L2_axial_rotation	L1_T12_Flex_Ext	L1_T12_Lat_Bending	L1_T12_axial_rotation	Abs_r3	Abs_r2	Abs_r1	Abs_t1	Abs_t2	neck_flexion	neck_bending	neck_rotation	arm_flex_r	arm_add_r	arm_rot_r	elbow_flex_r	pro_sup_r	wrist_flex_r	wrist_dev_r	arm_flex_l	arm_add_l	arm_rot_l	elbow_flex_l	pro_sup_l	wrist_flex_l	wrist_dev_l
      4.80000000	      1.75848893	     -6.25721645	    104.00447614	      0.26302041	      0.83166809	      0.80216695	      1.13886572	      2.30695294	      8.06561866	     13.39220219	      0.23373802	     26.89955331	    -14.89755725	      0.00000000	      2.63334030	     -1.71366737	      7.12973804	     13.22142954	      0.23075748	     33.71551034	     -9.11824712	      0.00000000	      0.02182604	      0.31509895	      1.52858973	      0.04053315	      0.41908160	      1.62412659	      0.03585801	      0.76613158	      1.62412659	      0.02494499	      0.76613158	      1.33751602	      0.02026767	      0.64254978	      1.24197916	      0.01247140	      0.48808827	      1.14644230	      0.15590126	      3.56446233	      8.50155752	      0.00000000	      0.00000000	     25.50275405	     -3.87182177	     -7.98255148	      0.13595702	    -12.18045615	      2.51323748	     75.02252344	     85.51822806	     -6.94115789	     10.63670816	     19.23457201	     -3.82406928	     27.14262246	     61.57180197	     87.20920681	     -5.87964657	     11.93402793
      4.81666667	      1.86613318	     -6.25157916	    104.30601538	      0.26244339	      0.83254907	      0.79992696	      0.95821906	      2.41179484	      7.68354961	     13.22281150	      0.23078160	     26.64002217	    -14.81795946	      0.00000000	      2.38764111	     -1.88222386	      7.06050770	     12.78080485	      0.22306713	     33.63183605	     -8.61693978	      0.00000000	      0.02934215	      0.33912245	      1.60453697	      0.05449132	      0.45103286	      1.70482054	      0.04820623	      0.82454232	      1.70482054	      0.03353515	      0.82454232	      1.40396985	      0.02724713	      0.69153850	      1.30368629	      0.01676611	      0.52530067	      1.20340273	      0.20958808	      3.83622098	      8.92395329	      0.00000000	      0.00000000	     24.92397895	     -3.31159221	     -8.04879021	     -1.86774258	    -11.56794178	      1.67312000	     80.52399821	     82.82697030	     -4.00406615	     13.19294516	     16.91021312	     -4.25403787	     27.58781635	     67.33974503	     85.50375843	     -3.61436301	     13.31160725
      4.83333333	      1.96663560	     -6.31478052	    104.61289313	      0.26206019	      0.83350829	      0.79791488	      0.86950444	      2.49302981	      7.24518703	     13.06444595	      0.22801760	     26.37214337	    -14.65368548	      0.00000000	      2.24922942	     -2.03252103	      6.97504334	     12.40334305	      0.21647917	     33.47485420	     -8.04432344	      0.00000000	      0.03853624	      0.35277577	      1.63900033	      0.07156565	      0.46919177	      1.74143785	      0.06331119	      0.85773901	      1.74143785	      0.04404307	      0.85773901	      1.43412529	      0.03578475	      0.71938035	      1.33168777	      0.02201961	      0.54644967	      1.22925025	      0.27526052	      3.99067006	      9.11562814	      0.00000000	      0.00000000	     24.54587588	     -2.54643246	     -7.93962261	     -3.44823142	    -11.13308191	      1.58431434	     86.81542794	     79.01353084	     -1.39387681	     15.41728109	     14.50336132	     -5.17863184	     28.01590134	     74.13340361	     81.90340360	     -0.43509341	     14.33984972
      4.85000000	      1.99112666	     -6.41578867	    104.92755185	      0.26206781	      0.83446044	      0.79608989	      0.83877081	      2.51156190	      6.79485928	     12.95151472	      0.22604657	     26.14320477	    -14.50929003	      0.00000000	      2.18083777	     -2.11651176	      6.87074594	     12.12328342	      0.21159121	     33.26431109	     -7.46706870	      0.00000000	      0.04055180	      0.34284195	      1.63172662	      0.07530875	      0.45597979	      1.73370954	      0.06662255	      0.83358592	      1.73370954	      0.04634665	      0.83358592	      1.42776080	      0.03765640	      0.69912330	      1.32577788	      0.02317130	      0.53106218	      1.22379497	      0.28965745	      3.87829670	      9.07517397	      0.00000000	      0.00000000	     24.36617883	     -1.81155380	     -8.08800205	     -4.26981570	    -10.87521740	      2.32644708	     93.35892062	     75.73797258	      0.28498251	     16.73292500	     12.46175357	     -6.35458616	     28.20716192	     81.35492197	     77.10867956	      3.22416544	     14.48291837
      4.86666667	      1.96126410	     -6.62945749	    105.21230347	      0.26225401	      0.83526651	      0.79424174	      0.89399682	      2.45306226	      6.42364194	     12.80536234	      0.22349573	     25.93227003	    -14.38436752	      0.00000000	      2.18575326	     -2.11999237	      6.77314477	     11.82179998	      0.20632933	     32.90299872	     -6.98548867	      0.00000000	      0.05088529	      0.31090279	      1.58804510	      0.09449908	      0.41350071	      1.68729792	      0.08359945	      0.75592905	      1.68729792	      0.05815680	      0.75592905	      1.38953946	      0.04725208	      0.63399297	      1.29028664	      0.02907586	      0.48158842	      1.19103382	      0.36346856	      3.51699456	      8.83223043	      0.00000000	      0.00000000	     24.37695824	     -1.43768237	     -8.73432551	     -4.16919710	    -10.69499990	      3.56150723	     99.68958522	     74.88457470	      1.17705226	     16.86218841	     10.74012266	     -7.27979998	     27.57614109	     88.86089313	     73.42492719	      6.24223894	     13.43872105
      4.88333333	      1.92293937	     -6.86367011	    105.49359524	      0.26259243	      0.83592789	      0.79235827	      0.96758735	      2.39957510	      6.09739171	     12.65073491	      0.22079698	     25.72271491	    -14.34010522	      0.00000000	      2.20519595	     -2.11741161	      6.66444187	     11.55767658	      0.20171951	     32.44114501	     -6.57519169	      0.00000000	      0.05780517	      0.26902496	      1.48954342	      0.10734998	      0.35780319	      1.58263988	      0.09496811	      0.65410728	      1.58263988	      0.06606553	      0.65410728	      1.30335049	      0.05367788	      0.54859569	      1.21025403	      0.03302987	      0.41671966	      1.11715756	      0.41289654	      3.04326411	      8.28439363	      0.00000000	      0.00000000	     24.56269949	     -1.48889126	     -9.53171544	     -2.98375549	    -10.58521232	      5.09559491	    105.37599540	     76.08985736	      1.90606478	     16.13763916	      9.46340724	     -7.61934269	     25.85981374	     96.41162592	     70.85401206	      8.22467772	     11.34950133
      4.90000000	      1.94847518	     -7.09078995	    106.08693642	      0.26241872	      0.83650793	      0.79084178	      0.98651518	      2.39405362	      5.56011694	     12.34880038	      0.21552723	     25.49723523	    -14.33171860	      0.00000000	      2.30573728	     -2.17195559	      6.58243231	     11.39122208	      0.19881433	     31.99032984	     -5.85119551	      0.00000000	      0.06833903	      0.23765588	      1.31136017	      0.12691241	      0.31608232	      1.39332018	      0.11227419	      0.57783651	      1.39332018	      0.07810467	      0.57783651	      1.14744014	      0.06345962	      0.48462788	      1.06548013	      0.03904892	      0.36812896	      0.98352012	      0.48813884	      2.68841088	      7.29339183	      0.00000000	      0.00000000	     24.87334601	     -1.67442533	     -9.76722935	     -0.83330754	    -10.50692031	      6.50332843	    110.02476320	     80.13097400	      2.19476056	     14.31201258	      8.91640007	     -7.30829304	     23.65853235	    103.67613402	     69.04868218	      8.79340977	      8.02924189
      4.91666667	      1.98209730	     -7.25858967	    106.50853989	      0.26231021	      0.83715906	      0.78982321	      1.01437565	      2.40259704	      5.16731779	     12.12131662	      0.21155688	     25.23689076	    -14.33687543	      0.00000000	      2.35392333	     -2.23623855	      6.32257181	     11.28732978	      0.19700107	     31.42603919	     -5.22047350	      0.00000000	      0.06993582	      0.21498655	      1.08762662	      0.12987782	      0.28593211	      1.15560329	      0.11489757	      0.52271829	      1.15560329	      0.07992965	      0.52271829	      0.95167329	      0.06494241	      0.43840057	      0.88369663	      0.03996133	      0.33301416	      0.81571997	      0.49954460	      2.43197081	      6.04905299	      0.00000000	      0.00000000	     24.91172280	     -2.31396549	     -9.79928203	      2.10475676	    -10.53661652	      8.06489041	    113.52645560	     84.16701305	      2.39515426	     12.65856778	      9.14809388	     -6.47017540	     21.03173857	    110.47333118	     69.10617786	      6.82738284	      3.58193994
      4.93333333	      2.06122214	     -7.29941966	    106.85701161	      0.26206176	      0.83793058	      0.78963976	      0.99129136	      2.46374041	      4.75986527	     11.95843794	      0.20871412	     24.93274060	    -14.30187185	      0.00000000	      2.33931678	     -2.36488916	      5.90125301	     11.27342790	      0.19675843	     30.85761498	     -4.56356245	      0.00000000	      0.05741391	      0.21075054	      0.85882027	      0.10662337	      0.28029822	      0.91249653	      0.09432531	      0.51241887	      0.91249653	      0.06561836	      0.51241887	      0.75146773	      0.05331456	      0.42976251	      0.69779147	      0.03280631	      0.32645259	      0.64411520	      0.41010181	      2.38405230	      4.77650068	      0.00000000	      0.00000000	     24.69078516	     -3.10614907	     -9.46967487	      5.26236734	    -10.70196565	      9.55410441	    116.18390086	     86.06835914	      2.36792833	     12.17625621	     10.31130409	     -5.31231630	     18.52875459	    116.65414050	     70.65529150	      2.82730250	     -0.24759901
      4.95000000	      2.10293988	     -7.23501171	    107.07453784	      0.26183508	      0.83888246	      0.79011288	      0.91524065	      2.49622017	      4.38093284	     11.89227510	      0.20755936	     24.47182311	    -14.28700572	      0.00000000	      2.22547020	     -2.47626517	      5.35777063	     11.27638785	      0.19681010	     30.22732933	     -3.95098790	      0.00000000	      0.03802799	      0.21274753	      0.69551188	      0.07062178	      0.28295422	      0.73898137	      0.06247618	      0.51727435	      0.73898137	      0.04346219	      0.51727435	      0.60857289	      0.03531279	      0.43383477	      0.56510340	      0.02172919	      0.32954593	      0.52163391	      0.27163011	      2.40664263	      3.86822842	      0.00000000	      0.00000000	     24.09160273	     -4.11287807	     -8.99622338	      7.93168787	    -10.81516970	     10.52798338	    118.47556335	     86.10054522	      2.46546690	     13.27652878	     12.23064854	     -4.02295883	     16.37818047	    122.11177951	     72.99139303	     -1.36218228	     -2.16942669
